<svg xmlns="http://www.w3.org/2000/svg" xmlns:xlink="http://www.w3.org/1999/xlink" xmlns:lucid="lucid" width="1400" height="2280"><g transform="translate(-440.00000000000034 -60)" lucid:page-tab-id="rpVmwGBcMVIu"><path d="M0 0h1870.4v2582.4H0z" fill="#fff"/><path d="M480 1143.6h780v378.8H480z" stroke="#000" stroke-width="2" fill="#f5b5c8"/><use xlink:href="#a" transform="matrix(1,0,0,1,485.00000000000034,1148.6) translate(0 24.888888888888893)"/><use xlink:href="#b" transform="matrix(1,0,0,1,485.00000000000034,1148.6) translate(0 62.222222222222236)"/><path d="M460 1740h440v580H460z" stroke="#000" stroke-width="2" fill="#f5b5c8"/><use xlink:href="#c" transform="matrix(1,0,0,1,465.00000000000034,1745) translate(0 24.888888888888893)"/><path d="M957.9 1740H1200v560H957.9z" stroke="#000" stroke-width="2" fill="#f5b5c8"/><use xlink:href="#d" transform="matrix(1,0,0,1,962.9000000000005,1745) translate(0 24.888888888888893)"/><path d="M1330 1720h330v180h-330z" stroke="#000" stroke-width="2" fill="#f5b5c8"/><use xlink:href="#e" transform="matrix(1,0,0,1,1335.0000000000005,1725) translate(0 24.888888888888893)"/><path d="M550 838h770v220H550z" stroke="#000" stroke-width="2" fill="#f5b5c8"/><use xlink:href="#f" transform="matrix(1,0,0,1,555.0000000000005,843) translate(0 24.888888888888893)"/><use xlink:href="#g" transform="matrix(1,0,0,1,555.0000000000005,843) translate(0 51.555555555555564)"/><use xlink:href="#h" transform="matrix(1,0,0,1,555.0000000000005,843) translate(0 72.8888888888889)"/><path d="M540 320h740v420H540z" stroke="#000" stroke-width="2" fill="#ffeca9"/><use xlink:href="#i" transform="matrix(1,0,0,1,545.0000000000003,325) translate(365 14.4)"/><use xlink:href="#j" transform="matrix(1,0,0,1,545.0000000000003,325) translate(314.525 36)"/><path d="M620 390h160v120H620z" stroke="#000" stroke-width="2" fill="#fff"/><use xlink:href="#k" transform="matrix(1,0,0,1,625.0000000000003,395) translate(52.5 59.0875)"/><path d="M611.33 80h160v120h-160z" stroke="#000" stroke-width="2" fill="#ffeca9"/><use xlink:href="#l" transform="matrix(1,0,0,1,616.3333333333336,85) translate(50.05 59.0875)"/><path d="M831.33 80h160v120h-160z" stroke="#000" stroke-width="2" fill="#ffeca9"/><use xlink:href="#m" transform="matrix(1,0,0,1,836.3333333333335,85) translate(50.4 59.0875)"/><path d="M1030 80h160v120h-160z" stroke="#000" stroke-width="2" fill="#ffeca9"/><use xlink:href="#n" transform="matrix(1,0,0,1,1035.0000000000002,85) translate(19.9 59.0875)"/><path d="M1200 1002.2v69.7H870v52.2" stroke="#000" stroke-width="2" fill="none"/><path d="M1201 1002.23h-2v-1.03h2z"/><path d="M870 1139.36l-4.64-14.26h9.28z" stroke="#000" stroke-width="2"/><path d="M830 1420v159h-75.8v141.5" stroke="#000" stroke-width="2" fill="none"/><path d="M831 1420.03h-2V1419h2z"/><path d="M754.2 1735.76l-4.65-14.26h9.27z" stroke="#000" stroke-width="2"/><path d="M830 1420v159h248.95v141.5" stroke="#000" stroke-width="2" fill="none"/><path d="M831 1420.03h-2V1419h2z"/><path d="M1078.95 1735.76l-4.64-14.26h9.3z" stroke="#000" stroke-width="2"/><path d="M830 1420v160h665v120.5" stroke="#000" stroke-width="2" fill="none"/><path d="M831 1420.03h-2V1419h2z"/><path d="M1495 1715.76l-4.64-14.26h9.28z" stroke="#000" stroke-width="2"/><path d="M691.33 202v58H910v40.5" stroke="#000" stroke-width="2" fill="none"/><path d="M692.33 202.03h-2V201h2z"/><path d="M910 315.76l-4.64-14.26h9.28z" stroke="#000" stroke-width="2"/><path d="M911.33 202v58H910v40.5" stroke="#000" stroke-width="2" fill="none"/><path d="M912.33 202.03h-2V201h2z"/><path d="M910 315.76l-4.64-14.26h9.28z" stroke="#000" stroke-width="2"/><path d="M1110 202v58H910v40.5" stroke="#000" stroke-width="2" fill="none"/><path d="M1111 202.03h-2V201h2z"/><path d="M910 315.76l-4.64-14.26h9.28z" stroke="#000" stroke-width="2"/><path d="M1237.9 628c0 6.63-26.86 12-60 12s-60-5.37-60-12v-96c0-6.63 26.86-12 60-12s60 5.37 60 12z" stroke="#000" stroke-width="2" fill="#fff"/><path d="M1237.9 532c0 6.63-26.86 12-60 12s-60-5.37-60-12" stroke="#000" stroke-width="2" fill="none"/><use xlink:href="#o" transform="matrix(1,0,0,1,1122.9000000000003,549) translate(33.525 46.65)"/><path d="M1228 420c17.67 0 32 17.9 32 40s-14.33 40-32 40h-96c-17.67 0-32-17.9-32-40s14.33-40 32-40z" stroke="#000" stroke-width="2" fill="#fff"/><use xlink:href="#p" transform="matrix(1,0,0,1,1105.0000000000002,425) translate(54 38.4625)"/><path d="M844.8 390h160v120h-160z" stroke="#000" stroke-width="2" fill="#fff"/><use xlink:href="#q" transform="matrix(1,0,0,1,849.8000000000004,395) translate(40.05 48.775)"/><use xlink:href="#k" transform="matrix(1,0,0,1,849.8000000000004,395) translate(52.5 70.375)"/><path d="M700 512v162h235v144.5" stroke="#000" stroke-width="2" fill="none"/><path d="M701 512.03h-2V511h2z"/><path d="M935 833.76l-4.64-14.26h9.28z" stroke="#000" stroke-width="2"/><path d="M924.8 512v162H935v144.5" stroke="#000" stroke-width="2" fill="none"/><path d="M925.8 512.03h-2V511h2z"/><path d="M935 833.76l-4.64-14.26h9.28z" stroke="#000" stroke-width="2"/><path d="M590 898h160v60H590z" stroke="#000" stroke-width="2" fill="#fff"/><use xlink:href="#r" transform="matrix(1,0,0,1,595.0000000000005,903) translate(36.55 30.025)"/><path d="M590 978h160v60H590z" stroke="#000" stroke-width="2" fill="#fff"/><use xlink:href="#s" transform="matrix(1,0,0,1,595.0000000000005,983.0000000000001) translate(27.549999999999997 30.025)"/><use xlink:href="#t" transform="matrix(1,0,0,1,595.0000000000005,983.0000000000001) translate(112.45 30.025)"/><path d="M790 900.2h243v72H790z" stroke="#000" stroke-width="2" fill="#fff"/><path d="M817 908.2h243v72H817z" stroke="#000" stroke-width="2" fill="#fff"/><use xlink:href="#u" transform="matrix(1,0,0,1,822.0000000000005,913.1999999999534) translate(86.05 23.799999999999997)"/><use xlink:href="#v" transform="matrix(1,0,0,1,822.0000000000005,913.1999999999534) translate(42.57499999999999 45.4)"/><path d="M1120 880.2h160v120h-160z" stroke="#000" stroke-width="2" fill="#fff"/><use xlink:href="#w" transform="matrix(1,0,0,1,1125.0000000000002,885.1999999999534) translate(40.5 59.0875)"/><path d="M530 1218h160v60H530z" stroke="#000" stroke-width="2" fill="#fff"/><use xlink:href="#x" transform="matrix(1,0,0,1,535.0000000000005,1223) translate(55.525 30.025)"/><path d="M530 1303h160v60H530z" stroke="#000" stroke-width="2" fill="#fff"/><use xlink:href="#y" transform="matrix(1,0,0,1,535.0000000000005,1308) translate(42.074999999999996 30.025)"/><use xlink:href="#z" transform="matrix(1,0,0,1,535.0000000000005,1308) translate(65.025 30.025)"/><path d="M530 1388h160v60H530z" stroke="#000" stroke-width="2" fill="#fff"/><use xlink:href="#A" transform="matrix(1,0,0,1,535.0000000000005,1393) translate(48.55 30.025)"/><path d="M750 1298h160v120H750z" stroke="#000" stroke-width="2" fill="#fff"/><use xlink:href="#B" transform="matrix(1,0,0,1,755.0000000000005,1303) translate(48.5 47.8)"/><use xlink:href="#C" transform="matrix(1,0,0,1,755.0000000000005,1303) translate(42.525 69.4)"/><path d="M950 1198h216v180H950z" stroke="#000" stroke-width="2" fill="#fff"/><path d="M974 1218h216v180H974z" stroke="#000" stroke-width="2" fill="#fff"/><use xlink:href="#D" transform="matrix(1,0,0,1,979.0000000000005,1223) translate(55.925 88.60000000000001)"/><path d="M1520 220h300v520h-300z" stroke="#000" stroke-width="2" fill="#fff"/><use xlink:href="#E" transform="matrix(1,0,0,1,1525.0000000000005,225) translate(113.88888888888889 24.888888888888893)"/><path d="M1560 280h220v80h-220z" stroke="#000" stroke-width="2" fill="#ffeca9"/><use xlink:href="#F" transform="matrix(1,0,0,1,1565.0000000000005,285) translate(50.05 38.4625)"/><use xlink:href="#G" transform="matrix(1,0,0,1,1565.0000000000005,285) translate(113 38.4625)"/><path d="M1560 400h220v80h-220z" stroke="#000" stroke-width="2" fill="#f5b5c8"/><use xlink:href="#H" transform="matrix(1,0,0,1,1565.0000000000005,405) translate(31.25 38.4625)"/><use xlink:href="#I" transform="matrix(1,0,0,1,1565.0000000000005,405) translate(126.80000000000001 38.4625)"/><path d="M1192 1298h188.5M1192.03 1298H1191" stroke="#000" stroke-width="2" fill="none"/><path d="M1395.76 1298l-14.26 4.64v-9.28z" stroke="#000" stroke-width="2"/><path d="M1400 1098h417.9v400H1400z" stroke="#000" stroke-width="2" fill="#f5b5c8"/><use xlink:href="#J" transform="matrix(1,0,0,1,1405.0000000000002,1103) translate(0 24.888888888888893)"/><path d="M1430 1188h160v60h-160z" stroke="#000" stroke-width="2" fill="#fff"/><use xlink:href="#x" transform="matrix(1,0,0,1,1435.0000000000002,1193) translate(55.525 30.025)"/><path d="M1430 1268h160v60h-160z" stroke="#000" stroke-width="2" fill="#fff"/><use xlink:href="#K" transform="matrix(1,0,0,1,1435.0000000000002,1273) translate(30.549999999999997 30.025)"/><path d="M1430 1358h306v108h-306z" stroke="#000" stroke-width="2" fill="#fff"/><path d="M1464 1370h306v108h-306z" stroke="#000" stroke-width="2" fill="#fff"/><use xlink:href="#L" transform="matrix(1,0,0,1,1469.0000000000002,1375) translate(85.6 31)"/><use xlink:href="#M" transform="matrix(1,0,0,1,1469.0000000000002,1375) translate(175.45 31)"/><use xlink:href="#i" transform="matrix(1,0,0,1,1469.0000000000002,1375) translate(148 52.6)"/><use xlink:href="#N" transform="matrix(1,0,0,1,1469.0000000000002,1375) translate(65.625 74.2)"/><use xlink:href="#O" transform="matrix(1,0,0,1,1469.0000000000002,1375) translate(170.47500000000002 74.2)"/><use xlink:href="#P" transform="matrix(1,0,0,1,1469.0000000000002,1375) translate(180.47500000000002 74.2)"/><path d="M991.33 1800h160v60h-160z" stroke="#000" stroke-width="2" fill="#fff"/><use xlink:href="#Q" transform="matrix(1,0,0,1,996.3333333333335,1805) translate(30.099999999999994 30.025)"/><path d="M991.33 1880h160v60h-160z" stroke="#000" stroke-width="2" fill="#fff"/><use xlink:href="#R" transform="matrix(1,0,0,1,996.3333333333335,1885) translate(40.6 30.025)"/><path d="M991.33 1960h160v60h-160z" stroke="#000" stroke-width="2" fill="#fff"/><use xlink:href="#S" transform="matrix(1,0,0,1,996.3333333333335,1965) translate(43.099999999999994 30.025)"/><path d="M991.33 2040h160v60h-160z" stroke="#000" stroke-width="2" fill="#fff"/><use xlink:href="#T" transform="matrix(1,0,0,1,996.3333333333335,2045) translate(45.575 30.025)"/><path d="M991.33 2120h160v60h-160z" stroke="#000" stroke-width="2" fill="#fff"/><use xlink:href="#U" transform="matrix(1,0,0,1,996.3333333333335,2125) translate(42.025 30.025)"/><path d="M991.33 2200h160v60h-160z" stroke="#000" stroke-width="2" fill="#fff"/><use xlink:href="#V" transform="matrix(1,0,0,1,996.3333333333335,2205) translate(23.074999999999996 30.025)"/><path d="M500 1800h220v60H500z" stroke="#000" stroke-width="2" fill="#fff"/><g><use xlink:href="#W" transform="matrix(1,0,0,1,505.00000000000034,1805) translate(6.599999999999994 30.025)"/></g><path d="M500 1880h220v60H500z" stroke="#000" stroke-width="2" fill="#fff"/><g><use xlink:href="#X" transform="matrix(1,0,0,1,505.00000000000034,1885) translate(0.6500000000000057 30.025)"/><use xlink:href="#t" transform="matrix(1,0,0,1,505.00000000000034,1885) translate(199.35 30.025)"/></g><path d="M500 1960h220v60H500z" stroke="#000" stroke-width="2" fill="#fff"/><g><use xlink:href="#Y" transform="matrix(1,0,0,1,505.00000000000034,1965) translate(40.07499999999999 30.025)"/><use xlink:href="#t" transform="matrix(1,0,0,1,505.00000000000034,1965) translate(159.925 30.025)"/></g><path d="M500 2040h220v60H500z" stroke="#000" stroke-width="2" fill="#fff"/><g><use xlink:href="#Z" transform="matrix(1,0,0,1,505.00000000000034,2045) translate(48.05 30.025)"/></g><path d="M500 2120h220v60H500z" stroke="#000" stroke-width="2" fill="#fff"/><g><use xlink:href="#aa" transform="matrix(1,0,0,1,505.00000000000045,2125) translate(51.925 30.025)"/><use xlink:href="#t" transform="matrix(1,0,0,1,505.00000000000045,2125) translate(148.075 30.025)"/></g><path d="M1360 1780h240v76h-240z" stroke="#000" stroke-width="2" fill="#fff"/><g><use xlink:href="#ab" transform="matrix(1,0,0,1,1365.0000000000002,1785) translate(44.974999999999994 37.0875)"/><use xlink:href="#ac" transform="matrix(1,0,0,1,1365.0000000000002,1785) translate(110.225 37.0875)"/></g><path d="M1602 1818h6.95v-300.5" stroke="#000" stroke-width="2" fill="none"/><path d="M1602.03 1819H1601v-2h1.03z"/><path d="M1608.95 1502.24l4.64 14.26h-9.3z" stroke="#000" stroke-width="2"/><defs><path d="M24-248c93 1 206-16 204 79-1 75-69 88-152 82V0H24v-248zm52 121c47 0 100 7 100-41 0-47-54-39-100-39v80" id="ad"/><path d="M182-130c37 4 62 22 62 59C244 23 116-4 24 0v-248c84 5 203-23 205 63 0 31-19 50-47 55zM76-148c40-3 101 13 101-30 0-44-60-28-101-31v61zm0 110c48-3 116 14 116-37 0-48-69-32-116-35v72" id="ae"/><path d="M199 0l-22-63H83L61 0H9l90-248h61L250 0h-51zm-33-102l-36-108c-10 38-24 72-36 108h72" id="af"/><path d="M137-138c1-29-70-34-71-4 15 46 118 7 119 86 1 83-164 76-172 9l43-7c4 19 20 25 44 25 33 8 57-30 24-41C81-84 22-81 20-136c-2-80 154-74 161-7" id="ag"/><path d="M185-48c-13 30-37 53-82 52C43 2 14-33 14-96s30-98 90-98c62 0 83 45 84 108H66c0 31 8 55 39 56 18 0 30-7 34-22zm-45-69c5-46-57-63-70-21-2 6-4 13-4 21h74" id="ah"/><path d="M115-3C79 11 28 4 28-45v-112H4v-33h27l15-45h31v45h36v33H77v99c-1 23 16 31 38 25v30" id="ai"/><g id="a"><use transform="matrix(0.08641975308641976,0,0,0.08641975308641976,0,0)" xlink:href="#ad"/><use transform="matrix(0.08641975308641976,0,0,0.08641975308641976,20.740740740740744,0)" xlink:href="#ae"/><use transform="matrix(0.08641975308641976,0,0,0.08641975308641976,43.12345679012346,0)" xlink:href="#af"/><use transform="matrix(0.08641975308641976,0,0,0.08641975308641976,65.50617283950618,0)" xlink:href="#ag"/><use transform="matrix(0.08641975308641976,0,0,0.08641975308641976,82.79012345679013,0)" xlink:href="#ag"/><use transform="matrix(0.08641975308641976,0,0,0.08641975308641976,100.07407407407409,0)" xlink:href="#ah"/><use transform="matrix(0.08641975308641976,0,0,0.08641975308641976,117.35802469135801,0)" xlink:href="#ai"/></g><path d="M24 0v-248h52V0H24" id="aj"/><path d="M24-248c120-7 223 5 221 122C244-46 201 0 124 0H24v-248zM76-40c74 7 117-18 117-86 0-67-45-88-117-82v168" id="ak"/><path d="M110-194c64 0 96 36 96 99 0 64-35 99-97 99-61 0-95-36-95-99 0-62 34-99 96-99zm-1 164c35 0 45-28 45-65 0-40-10-65-43-65-34 0-45 26-45 65 0 36 10 65 43 65" id="al"/><path d="M190-63c-7 42-38 67-86 67-59 0-84-38-90-98-12-110 154-137 174-36l-49 2c-2-19-15-32-35-32-30 0-35 28-38 64-6 74 65 87 74 30" id="am"/><g id="c"><use transform="matrix(0.08641975308641976,0,0,0.08641975308641976,0,0)" xlink:href="#ad"/><use transform="matrix(0.08641975308641976,0,0,0.08641975308641976,20.740740740740744,0)" xlink:href="#ae"/><use transform="matrix(0.08641975308641976,0,0,0.08641975308641976,43.12345679012346,0)" xlink:href="#aj"/><use transform="matrix(0.08641975308641976,0,0,0.08641975308641976,51.76543209876544,0)" xlink:href="#ak"/><use transform="matrix(0.08641975308641976,0,0,0.08641975308641976,74.14814814814815,0)" xlink:href="#ak"/><use transform="matrix(0.08641975308641976,0,0,0.08641975308641976,96.53086419753087,0)" xlink:href="#al"/><use transform="matrix(0.08641975308641976,0,0,0.08641975308641976,115.4567901234568,0)" xlink:href="#am"/></g><path d="M275 0h-61l-44-196L126 0H64L0-248h53L97-49l45-199h58l43 199 44-199h52" id="an"/><path d="M133-34C117-15 103 5 69 4 32 3 11-16 11-54c-1-60 55-63 116-61 1-26-3-47-28-47-18 1-26 9-28 27l-52-2c7-38 36-58 82-57s74 22 75 68l1 82c-1 14 12 18 25 15v27c-30 8-71 5-69-32zm-48 3c29 0 43-24 42-57-32 0-66-3-65 30 0 17 8 27 23 27" id="ao"/><path d="M25 0v-261h50V0H25" id="ap"/><g id="d"><use transform="matrix(0.08641975308641976,0,0,0.08641975308641976,0,0)" xlink:href="#ad"/><use transform="matrix(0.08641975308641976,0,0,0.08641975308641976,20.740740740740744,0)" xlink:href="#ae"/><use transform="matrix(0.08641975308641976,0,0,0.08641975308641976,43.12345679012346,0)" xlink:href="#an"/><use transform="matrix(0.08641975308641976,0,0,0.08641975308641976,71.2962962962963,0)" xlink:href="#ao"/><use transform="matrix(0.08641975308641976,0,0,0.08641975308641976,88.58024691358025,0)" xlink:href="#ap"/><use transform="matrix(0.08641975308641976,0,0,0.08641975308641976,97.22222222222223,0)" xlink:href="#ap"/><use transform="matrix(0.08641975308641976,0,0,0.08641975308641976,105.8641975308642,0)" xlink:href="#ah"/><use transform="matrix(0.08641975308641976,0,0,0.08641975308641976,123.14814814814817,0)" xlink:href="#ai"/></g><path d="M136-208V0H84v-208H4v-40h212v40h-80" id="aq"/><path d="M135-150c-39-12-60 13-60 57V0H25l-1-190h47c2 13-1 29 3 40 6-28 27-53 61-41v41" id="ar"/><path d="M85 4C-2 5 27-109 22-190h50c7 57-23 150 33 157 60-5 35-97 40-157h50l1 190h-47c-2-12 1-28-3-38-12 25-28 42-61 42" id="as"/><path d="M67-125c0 54 23 88 75 88 28 0 53-7 68-21v-34h-60v-39h108v91C232-14 192 4 140 4 58 4 20-42 15-125 8-236 126-280 215-234c19 10 29 26 37 47l-47 15c-11-23-29-39-63-39-53 1-75 33-75 86" id="at"/><path d="M135-194c53 0 70 44 70 98 0 56-19 98-73 100-31 1-45-17-59-34 3 33 2 69 2 105H25l-1-265h48c2 10 0 23 3 31 11-24 29-35 60-35zM114-30c33 0 39-31 40-66 0-38-9-64-40-64-56 0-55 130 0 130" id="au"/><g id="e"><use transform="matrix(0.08641975308641976,0,0,0.08641975308641976,0,0)" xlink:href="#ad"/><use transform="matrix(0.08641975308641976,0,0,0.08641975308641976,20.740740740740744,0)" xlink:href="#ae"/><use transform="matrix(0.08641975308641976,0,0,0.08641975308641976,43.12345679012346,0)" xlink:href="#aq"/><use transform="matrix(0.08641975308641976,0,0,0.08641975308641976,60.320987654321,0)" xlink:href="#ar"/><use transform="matrix(0.08641975308641976,0,0,0.08641975308641976,72.41975308641977,0)" xlink:href="#as"/><use transform="matrix(0.08641975308641976,0,0,0.08641975308641976,91.34567901234568,0)" xlink:href="#ag"/><use transform="matrix(0.08641975308641976,0,0,0.08641975308641976,108.62962962962965,0)" xlink:href="#ai"/><use transform="matrix(0.08641975308641976,0,0,0.08641975308641976,118.9135802469136,0)" xlink:href="#ah"/><use transform="matrix(0.08641975308641976,0,0,0.08641975308641976,136.19753086419755,0)" xlink:href="#ah"/><use transform="matrix(0.08641975308641976,0,0,0.08641975308641976,153.4814814814815,0)" xlink:href="#at"/><use transform="matrix(0.08641975308641976,0,0,0.08641975308641976,177.67901234567904,0)" xlink:href="#ar"/><use transform="matrix(0.08641975308641976,0,0,0.08641975308641976,189.7777777777778,0)" xlink:href="#al"/><use transform="matrix(0.08641975308641976,0,0,0.08641975308641976,208.70370370370372,0)" xlink:href="#as"/><use transform="matrix(0.08641975308641976,0,0,0.08641975308641976,227.62962962962965,0)" xlink:href="#au"/></g><path d="M169-182c-1-43-94-46-97-3 18 66 151 10 154 114 3 95-165 93-204 36-6-8-10-19-12-30l50-8c3 46 112 56 116 5-17-69-150-10-154-114-4-87 153-88 188-35 5 8 8 18 10 28" id="av"/><path d="M25-224v-37h50v37H25zM25 0v-190h50V0H25" id="aw"/><path d="M195-6C206 82 75 100 31 46c-4-6-6-13-8-21l49-6c3 16 16 24 34 25 40 0 42-37 40-79-11 22-30 35-61 35-53 0-70-43-70-97 0-56 18-96 73-97 30 0 46 14 59 34l2-30h47zm-90-29c32 0 41-27 41-63 0-35-9-62-40-62-32 0-39 29-40 63 0 36 9 62 39 62" id="ax"/><path d="M135-194c87-1 58 113 63 194h-50c-7-57 23-157-34-157-59 0-34 97-39 157H25l-1-190h47c2 12-1 28 3 38 12-26 28-41 61-42" id="ay"/><path d="M88-194c31-1 46 15 58 34l-1-101h50l1 261h-48c-2-10 0-23-3-31C134-8 116 4 84 4 32 4 16-41 15-95c0-56 19-97 73-99zm17 164c33 0 40-30 41-66 1-37-9-64-41-64s-38 30-39 65c0 43 13 65 39 65" id="az"/><g id="f"><use transform="matrix(0.08641975308641976,0,0,0.08641975308641976,0,0)" xlink:href="#ad"/><use transform="matrix(0.08641975308641976,0,0,0.08641975308641976,20.740740740740744,0)" xlink:href="#ae"/><use transform="matrix(0.08641975308641976,0,0,0.08641975308641976,43.12345679012346,0)" xlink:href="#av"/><use transform="matrix(0.08641975308641976,0,0,0.08641975308641976,63.8641975308642,0)" xlink:href="#aw"/><use transform="matrix(0.08641975308641976,0,0,0.08641975308641976,72.50617283950618,0)" xlink:href="#ax"/><use transform="matrix(0.08641975308641976,0,0,0.08641975308641976,91.4320987654321,0)" xlink:href="#ay"/><use transform="matrix(0.08641975308641976,0,0,0.08641975308641976,110.35802469135801,0)" xlink:href="#ah"/><use transform="matrix(0.08641975308641976,0,0,0.08641975308641976,127.64197530864197,0)" xlink:href="#az"/><use transform="matrix(0.08641975308641976,0,0,0.08641975308641976,146.5679012345679,0)" xlink:href="#af"/><use transform="matrix(0.08641975308641976,0,0,0.08641975308641976,168.9506172839506,0)" xlink:href="#ag"/><use transform="matrix(0.08641975308641976,0,0,0.08641975308641976,186.23456790123456,0)" xlink:href="#ag"/><use transform="matrix(0.08641975308641976,0,0,0.08641975308641976,203.5185185185185,0)" xlink:href="#ah"/><use transform="matrix(0.08641975308641976,0,0,0.08641975308641976,220.80246913580245,0)" xlink:href="#ai"/></g><path d="M185-189c-5-48-123-54-124 2 14 75 158 14 163 119 3 78-121 87-175 55-17-10-28-26-33-46l33-7c5 56 141 63 141-1 0-78-155-14-162-118-5-82 145-84 179-34 5 7 8 16 11 25" id="aA"/><path d="M24-231v-30h32v30H24zM24 0v-190h32V0H24" id="aB"/><path d="M177-190C167-65 218 103 67 71c-23-6-38-20-44-43l32-5c15 47 100 32 89-28v-30C133-14 115 1 83 1 29 1 15-40 15-95c0-56 16-97 71-98 29-1 48 16 59 35 1-10 0-23 2-32h30zM94-22c36 0 50-32 50-73 0-42-14-75-50-75-39 0-46 34-46 75s6 73 46 73" id="aC"/><path d="M117-194c89-4 53 116 60 194h-32v-121c0-31-8-49-39-48C34-167 62-67 57 0H25l-1-190h30c1 10-1 24 2 32 11-22 29-35 61-36" id="aD"/><path d="M100-194c63 0 86 42 84 106H49c0 40 14 67 53 68 26 1 43-12 49-29l28 8c-11 28-37 45-77 45C44 4 14-33 15-96c1-61 26-98 85-98zm52 81c6-60-76-77-97-28-3 7-6 17-6 28h103" id="aE"/><path d="M85-194c31 0 48 13 60 33l-1-100h32l1 261h-30c-2-10 0-23-3-31C134-8 116 4 85 4 32 4 16-35 15-94c0-66 23-100 70-100zm9 24c-40 0-46 34-46 75 0 40 6 74 45 74 42 0 51-32 51-76 0-42-9-74-50-73" id="aF"/><path d="M205 0l-28-72H64L36 0H1l101-248h38L239 0h-34zm-38-99l-47-123c-12 45-31 82-46 123h93" id="aG"/><path d="M135-143c-3-34-86-38-87 0 15 53 115 12 119 90S17 21 10-45l28-5c4 36 97 45 98 0-10-56-113-15-118-90-4-57 82-63 122-42 12 7 21 19 24 35" id="aH"/><path d="M59-47c-2 24 18 29 38 22v24C64 9 27 4 27-40v-127H5v-23h24l9-43h21v43h35v23H59v120" id="aI"/><g id="j"><use transform="matrix(0.05,0,0,0.05,0,0)" xlink:href="#aA"/><use transform="matrix(0.05,0,0,0.05,12,0)" xlink:href="#aB"/><use transform="matrix(0.05,0,0,0.05,15.949999999999998,0)" xlink:href="#aC"/><use transform="matrix(0.05,0,0,0.05,25.950000000000003,0)" xlink:href="#aD"/><use transform="matrix(0.05,0,0,0.05,35.95,0)" xlink:href="#aE"/><use transform="matrix(0.05,0,0,0.05,45.95,0)" xlink:href="#aF"/><use transform="matrix(0.05,0,0,0.05,55.95,0)" xlink:href="#aG"/><use transform="matrix(0.05,0,0,0.05,67.95,0)" xlink:href="#aH"/><use transform="matrix(0.05,0,0,0.05,76.95,0)" xlink:href="#aH"/><use transform="matrix(0.05,0,0,0.05,85.95,0)" xlink:href="#aE"/><use transform="matrix(0.05,0,0,0.05,95.95,0)" xlink:href="#aI"/></g><g id="k"><use transform="matrix(0.05,0,0,0.05,0,0)" xlink:href="#aG"/><use transform="matrix(0.05,0,0,0.05,12,0)" xlink:href="#aH"/><use transform="matrix(0.05,0,0,0.05,21,0)" xlink:href="#aH"/><use transform="matrix(0.05,0,0,0.05,30,0)" xlink:href="#aE"/><use transform="matrix(0.05,0,0,0.05,40,0)" xlink:href="#aI"/></g><path d="M33 0v-248h34V0H33" id="aJ"/><path d="M30-248c118-7 216 8 213 122C240-48 200 0 122 0H30v-248zM63-27c89 8 146-16 146-99s-60-101-146-95v194" id="aK"/><path d="M100-194c62-1 85 37 85 99 1 63-27 99-86 99S16-35 15-95c0-66 28-99 85-99zM99-20c44 1 53-31 53-75 0-43-8-75-51-75s-53 32-53 75 10 74 51 75" id="aL"/><path d="M96-169c-40 0-48 33-48 73s9 75 48 75c24 0 41-14 43-38l32 2c-6 37-31 61-74 61-59 0-76-41-82-99-10-93 101-131 147-64 4 7 5 14 7 22l-32 3c-4-21-16-35-41-35" id="aM"/><g id="l"><use transform="matrix(0.05,0,0,0.05,0,0)" xlink:href="#aJ"/><use transform="matrix(0.05,0,0,0.05,5,0)" xlink:href="#aK"/><use transform="matrix(0.05,0,0,0.05,17.950000000000003,0)" xlink:href="#aK"/><use transform="matrix(0.05,0,0,0.05,30.900000000000006,0)" xlink:href="#aL"/><use transform="matrix(0.05,0,0,0.05,40.900000000000006,0)" xlink:href="#aM"/></g><path d="M266 0h-40l-56-210L115 0H75L2-248h35L96-30l15-64 43-154h32l59 218 59-218h35" id="aN"/><path d="M141-36C126-15 110 5 73 4 37 3 15-17 15-53c-1-64 63-63 125-63 3-35-9-54-41-54-24 1-41 7-42 31l-33-3c5-37 33-52 76-52 45 0 72 20 72 64v82c-1 20 7 32 28 27v20c-31 9-61-2-59-35zM48-53c0 20 12 33 32 33 41-3 63-29 60-74-43 2-92-5-92 41" id="aO"/><path d="M24 0v-261h32V0H24" id="aP"/><g id="m"><use transform="matrix(0.05,0,0,0.05,0,0)" xlink:href="#aN"/><use transform="matrix(0.05,0,0,0.05,16.3,0)" xlink:href="#aO"/><use transform="matrix(0.05,0,0,0.05,26.3,0)" xlink:href="#aP"/><use transform="matrix(0.05,0,0,0.05,30.25,0)" xlink:href="#aP"/><use transform="matrix(0.05,0,0,0.05,34.2,0)" xlink:href="#aE"/><use transform="matrix(0.05,0,0,0.05,44.2,0)" xlink:href="#aI"/></g><path d="M127-220V0H93v-220H8v-28h204v28h-85" id="aQ"/><path d="M114-163C36-179 61-72 57 0H25l-1-190h30c1 12-1 29 2 39 6-27 23-49 58-41v29" id="aR"/><path d="M84 4C-5 8 30-112 23-190h32v120c0 31 7 50 39 49 72-2 45-101 50-169h31l1 190h-30c-1-10 1-25-2-33-11 22-28 36-60 37" id="aS"/><path d="M143 4C61 4 22-44 18-125c-5-107 100-154 193-111 17 8 29 25 37 43l-32 9c-13-25-37-40-76-40-61 0-88 39-88 99 0 61 29 100 91 101 35 0 62-11 79-27v-45h-74v-28h105v86C228-13 192 4 143 4" id="aT"/><path d="M115-194c55 1 70 41 70 98S169 2 115 4C84 4 66-9 55-30l1 105H24l-1-265h31l2 30c10-21 28-34 59-34zm-8 174c40 0 45-34 45-75s-6-73-45-74c-42 0-51 32-51 76 0 43 10 73 51 73" id="aU"/><g id="n"><use transform="matrix(0.05,0,0,0.05,0,0)" xlink:href="#aQ"/><use transform="matrix(0.05,0,0,0.05,10.3,0)" xlink:href="#aR"/><use transform="matrix(0.05,0,0,0.05,16.25,0)" xlink:href="#aS"/><use transform="matrix(0.05,0,0,0.05,26.25,0)" xlink:href="#aH"/><use transform="matrix(0.05,0,0,0.05,35.25,0)" xlink:href="#aI"/><use transform="matrix(0.05,0,0,0.05,40.25,0)" xlink:href="#aE"/><use transform="matrix(0.05,0,0,0.05,50.25,0)" xlink:href="#aE"/><use transform="matrix(0.05,0,0,0.05,60.25,0)" xlink:href="#aT"/><use transform="matrix(0.05,0,0,0.05,74.25,0)" xlink:href="#aR"/><use transform="matrix(0.05,0,0,0.05,80.2,0)" xlink:href="#aL"/><use transform="matrix(0.05,0,0,0.05,90.2,0)" xlink:href="#aS"/><use transform="matrix(0.05,0,0,0.05,100.2,0)" xlink:href="#aU"/></g><g id="o"><use transform="matrix(0.05,0,0,0.05,0,0)" xlink:href="#aA"/><use transform="matrix(0.05,0,0,0.05,12,0)" xlink:href="#aI"/><use transform="matrix(0.05,0,0,0.05,17,0)" xlink:href="#aL"/><use transform="matrix(0.05,0,0,0.05,27,0)" xlink:href="#aR"/><use transform="matrix(0.05,0,0,0.05,32.95,0)" xlink:href="#aE"/></g><g id="p"><use transform="matrix(0.05,0,0,0.05,0,0)" xlink:href="#aA"/><use transform="matrix(0.05,0,0,0.05,12,0)" xlink:href="#aE"/><use transform="matrix(0.05,0,0,0.05,22,0)" xlink:href="#aE"/><use transform="matrix(0.05,0,0,0.05,32,0)" xlink:href="#aF"/></g><path d="M30-248c87 1 191-15 191 75 0 78-77 80-158 76V0H30v-248zm33 125c57 0 124 11 124-50 0-59-68-47-124-48v98" id="aV"/><path d="M108 0H70L1-190h34L89-25l56-165h34" id="aW"/><g id="q"><use transform="matrix(0.05,0,0,0.05,0,0)" xlink:href="#aV"/><use transform="matrix(0.05,0,0,0.05,12,0)" xlink:href="#aR"/><use transform="matrix(0.05,0,0,0.05,17.95,0)" xlink:href="#aE"/><use transform="matrix(0.05,0,0,0.05,27.950000000000003,0)" xlink:href="#aW"/><use transform="matrix(0.05,0,0,0.05,36.95,0)" xlink:href="#aB"/><use transform="matrix(0.05,0,0,0.05,40.900000000000006,0)" xlink:href="#aL"/><use transform="matrix(0.05,0,0,0.05,50.900000000000006,0)" xlink:href="#aS"/><use transform="matrix(0.05,0,0,0.05,60.900000000000006,0)" xlink:href="#aH"/></g><g id="r"><use transform="matrix(0.05,0,0,0.05,0,0)" xlink:href="#aA"/><use transform="matrix(0.05,0,0,0.05,12,0)" xlink:href="#aB"/><use transform="matrix(0.05,0,0,0.05,15.949999999999998,0)" xlink:href="#aC"/><use transform="matrix(0.05,0,0,0.05,25.950000000000003,0)" xlink:href="#aD"/><use transform="matrix(0.05,0,0,0.05,35.95,0)" xlink:href="#aO"/><use transform="matrix(0.05,0,0,0.05,45.95,0)" xlink:href="#aI"/><use transform="matrix(0.05,0,0,0.05,50.95,0)" xlink:href="#aS"/><use transform="matrix(0.05,0,0,0.05,60.95,0)" xlink:href="#aR"/><use transform="matrix(0.05,0,0,0.05,66.9,0)" xlink:href="#aE"/></g><path d="M115-194c53 0 69 39 70 98 0 66-23 100-70 100C84 3 66-7 56-30L54 0H23l1-261h32v101c10-23 28-34 59-34zm-8 174c40 0 45-34 45-75 0-40-5-75-45-74-42 0-51 32-51 76 0 43 10 73 51 73" id="aX"/><path d="M194 0L95-120 63-95V0H30v-248h33v124l119-124h40L117-140 236 0h-42" id="aY"/><path d="M179-190L93 31C79 59 56 82 12 73V49c39 6 53-20 64-50L1-190h34L92-34l54-156h33" id="aZ"/><g id="s"><use transform="matrix(0.05,0,0,0.05,0,0)" xlink:href="#aV"/><use transform="matrix(0.05,0,0,0.05,12,0)" xlink:href="#aS"/><use transform="matrix(0.05,0,0,0.05,22,0)" xlink:href="#aX"/><use transform="matrix(0.05,0,0,0.05,32,0)" xlink:href="#aP"/><use transform="matrix(0.05,0,0,0.05,35.95,0)" xlink:href="#aB"/><use transform="matrix(0.05,0,0,0.05,39.900000000000006,0)" xlink:href="#aM"/><use transform="matrix(0.05,0,0,0.05,48.900000000000006,0)" xlink:href="#aY"/><use transform="matrix(0.05,0,0,0.05,60.900000000000006,0)" xlink:href="#aE"/><use transform="matrix(0.05,0,0,0.05,70.9,0)" xlink:href="#aZ"/></g><path d="M103-251c84 0 111 97 45 133-19 10-37 24-39 52H78c0-63 77-55 77-114 0-30-21-42-52-43-32 0-53 17-56 46l-32-2c7-45 34-72 88-72zM77 0v-35h34V0H77" id="ba"/><use transform="matrix(0.05,0,0,0.05,0,0)" xlink:href="#ba" id="t"/><g id="u"><use transform="matrix(0.05,0,0,0.05,0,0)" xlink:href="#aA"/><use transform="matrix(0.05,0,0,0.05,12,0)" xlink:href="#aB"/><use transform="matrix(0.05,0,0,0.05,15.949999999999998,0)" xlink:href="#aC"/><use transform="matrix(0.05,0,0,0.05,25.950000000000003,0)" xlink:href="#aD"/><use transform="matrix(0.05,0,0,0.05,35.95,0)" xlink:href="#aE"/><use transform="matrix(0.05,0,0,0.05,45.95,0)" xlink:href="#aR"/><use transform="matrix(0.05,0,0,0.05,51.900000000000006,0)" xlink:href="#aH"/></g><path d="M210-169c-67 3-38 105-44 169h-31v-121c0-29-5-50-35-48C34-165 62-65 56 0H25l-1-190h30c1 10-1 24 2 32 10-44 99-50 107 0 11-21 27-35 58-36 85-2 47 119 55 194h-31v-121c0-29-5-49-35-48" id="bb"/><path d="M18-100v-36l175-74v27L42-118l151 64v27" id="bc"/><path d="M33-154v-36h34v36H33zM33 0v-36h34V0H33" id="bd"/><path d="M18-27v-27l151-64-151-65v-27l175 74v36" id="be"/><g id="v"><use transform="matrix(0.05,0,0,0.05,0,0)" xlink:href="#bb"/><use transform="matrix(0.05,0,0,0.05,14.950000000000001,0)" xlink:href="#aO"/><use transform="matrix(0.05,0,0,0.05,24.950000000000003,0)" xlink:href="#aU"/><use transform="matrix(0.05,0,0,0.05,34.95,0)" xlink:href="#bc"/><use transform="matrix(0.05,0,0,0.05,45.45,0)" xlink:href="#aH"/><use transform="matrix(0.05,0,0,0.05,54.45,0)" xlink:href="#aI"/><use transform="matrix(0.05,0,0,0.05,59.45,0)" xlink:href="#aR"/><use transform="matrix(0.05,0,0,0.05,65.4,0)" xlink:href="#aB"/><use transform="matrix(0.05,0,0,0.05,69.35000000000001,0)" xlink:href="#aD"/><use transform="matrix(0.05,0,0,0.05,79.35000000000001,0)" xlink:href="#aC"/><use transform="matrix(0.05,0,0,0.05,89.35000000000001,0)" xlink:href="#bd"/><use transform="matrix(0.05,0,0,0.05,94.35000000000001,0)" xlink:href="#aX"/><use transform="matrix(0.05,0,0,0.05,104.35000000000001,0)" xlink:href="#aZ"/><use transform="matrix(0.05,0,0,0.05,113.35000000000001,0)" xlink:href="#aI"/><use transform="matrix(0.05,0,0,0.05,118.35000000000001,0)" xlink:href="#aE"/><use transform="matrix(0.05,0,0,0.05,128.35000000000002,0)" xlink:href="#aH"/><use transform="matrix(0.05,0,0,0.05,137.35000000000002,0)" xlink:href="#be"/></g><path d="M160-131c35 5 61 23 61 61C221 17 115-2 30 0v-248c76 3 177-17 177 60 0 33-19 50-47 57zm-97-11c50-1 110 9 110-42 0-47-63-36-110-37v79zm0 115c55-2 124 14 124-45 0-56-70-42-124-44v89" id="bf"/><g id="w"><use transform="matrix(0.05,0,0,0.05,0,0)" xlink:href="#aV"/><use transform="matrix(0.05,0,0,0.05,12,0)" xlink:href="#bf"/><use transform="matrix(0.05,0,0,0.05,24,0)" xlink:href="#aG"/><use transform="matrix(0.05,0,0,0.05,36,0)" xlink:href="#aH"/><use transform="matrix(0.05,0,0,0.05,45,0)" xlink:href="#aH"/><use transform="matrix(0.05,0,0,0.05,54,0)" xlink:href="#aE"/><use transform="matrix(0.05,0,0,0.05,64,0)" xlink:href="#aI"/></g><g id="x"><use transform="matrix(0.05,0,0,0.05,0,0)" xlink:href="#aQ"/><use transform="matrix(0.05,0,0,0.05,9.950000000000001,0)" xlink:href="#aZ"/><use transform="matrix(0.05,0,0,0.05,18.950000000000003,0)" xlink:href="#aU"/><use transform="matrix(0.05,0,0,0.05,28.950000000000003,0)" xlink:href="#aE"/></g><g id="y"><use transform="matrix(0.05,0,0,0.05,0,0)" xlink:href="#aJ"/><use transform="matrix(0.05,0,0,0.05,5,0)" xlink:href="#aK"/></g><path d="M87 75C49 33 22-17 22-94c0-76 28-126 65-167h31c-38 41-64 92-64 168S80 34 118 75H87" id="bg"/><path d="M33-261c38 41 65 92 65 168S71 34 33 75H2C39 34 66-17 66-93S39-220 2-261h31" id="bh"/><g id="z"><use transform="matrix(0.05,0,0,0.05,0,0)" xlink:href="#bg"/><use transform="matrix(0.05,0,0,0.05,5.95,0)" xlink:href="#aY"/><use transform="matrix(0.05,0,0,0.05,17.95,0)" xlink:href="#aE"/><use transform="matrix(0.05,0,0,0.05,27.950000000000003,0)" xlink:href="#aZ"/><use transform="matrix(0.05,0,0,0.05,36.95,0)" xlink:href="#bh"/></g><path d="M140-251c81 0 123 46 123 126C263-46 219 4 140 4 59 4 17-45 17-125s42-126 123-126zm0 227c63 0 89-41 89-101s-29-99-89-99c-61 0-89 39-89 99S79-25 140-24" id="bi"/><path d="M206 0h-36l-40-164L89 0H53L-1-190h32L70-26l43-164h34l41 164 42-164h31" id="bj"/><g id="A"><use transform="matrix(0.05,0,0,0.05,0,0)" xlink:href="#bi"/><use transform="matrix(0.05,0,0,0.05,14,0)" xlink:href="#bj"/><use transform="matrix(0.05,0,0,0.05,26.950000000000003,0)" xlink:href="#aD"/><use transform="matrix(0.05,0,0,0.05,36.95,0)" xlink:href="#aE"/><use transform="matrix(0.05,0,0,0.05,46.95,0)" xlink:href="#aR"/></g><path d="M101-234c-31-9-42 10-38 44h38v23H63V0H32v-167H5v-23h27c-7-52 17-82 69-68v24" id="bk"/><g id="B"><use transform="matrix(0.05,0,0,0.05,0,0)" xlink:href="#bi"/><use transform="matrix(0.05,0,0,0.05,14,0)" xlink:href="#aD"/><use transform="matrix(0.05,0,0,0.05,24,0)" xlink:href="#aE"/><use transform="matrix(0.05,0,0,0.05,34,0)" xlink:href="#bi"/><use transform="matrix(0.05,0,0,0.05,48,0)" xlink:href="#bk"/></g><g id="C"><use transform="matrix(0.05,0,0,0.05,0,0)" xlink:href="#aV"/><use transform="matrix(0.05,0,0,0.05,12,0)" xlink:href="#aO"/><use transform="matrix(0.05,0,0,0.05,22,0)" xlink:href="#aZ"/><use transform="matrix(0.05,0,0,0.05,31,0)" xlink:href="#aP"/><use transform="matrix(0.05,0,0,0.05,34.95,0)" xlink:href="#aL"/><use transform="matrix(0.05,0,0,0.05,44.95,0)" xlink:href="#aO"/><use transform="matrix(0.05,0,0,0.05,54.95,0)" xlink:href="#aF"/></g><path d="M30 0v-248h33v221h125V0H30" id="bl"/><g id="D"><use transform="matrix(0.05,0,0,0.05,0,0)" xlink:href="#aQ"/><use transform="matrix(0.05,0,0,0.05,10.3,0)" xlink:href="#aR"/><use transform="matrix(0.05,0,0,0.05,16.25,0)" xlink:href="#aO"/><use transform="matrix(0.05,0,0,0.05,26.25,0)" xlink:href="#aD"/><use transform="matrix(0.05,0,0,0.05,36.25,0)" xlink:href="#aH"/><use transform="matrix(0.05,0,0,0.05,45.25,0)" xlink:href="#bk"/><use transform="matrix(0.05,0,0,0.05,50.25,0)" xlink:href="#aE"/><use transform="matrix(0.05,0,0,0.05,60.25,0)" xlink:href="#aR"/><use transform="matrix(0.05,0,0,0.05,66.2,0)" xlink:href="#bl"/><use transform="matrix(0.05,0,0,0.05,76.2,0)" xlink:href="#aB"/><use transform="matrix(0.05,0,0,0.05,80.15,0)" xlink:href="#aH"/><use transform="matrix(0.05,0,0,0.05,89.15,0)" xlink:href="#aI"/></g><path d="M30 0v-248h187v28H63v79h144v27H63v87h162V0H30" id="bm"/><path d="M137-103V0h-34v-103L8-248h37l75 118 75-118h37" id="bn"/><g id="E"><use transform="matrix(0.08641975308641976,0,0,0.08641975308641976,0,0)" xlink:href="#aY"/><use transform="matrix(0.08641975308641976,0,0,0.08641975308641976,20.740740740740744,0)" xlink:href="#bm"/><use transform="matrix(0.08641975308641976,0,0,0.08641975308641976,41.48148148148149,0)" xlink:href="#bn"/></g><g id="F"><use transform="matrix(0.05,0,0,0.05,0,0)" xlink:href="#aT"/><use transform="matrix(0.05,0,0,0.05,14,0)" xlink:href="#aL"/><use transform="matrix(0.05,0,0,0.05,24,0)" xlink:href="#aP"/><use transform="matrix(0.05,0,0,0.05,27.950000000000003,0)" xlink:href="#aO"/><use transform="matrix(0.05,0,0,0.05,37.95,0)" xlink:href="#aD"/><use transform="matrix(0.05,0,0,0.05,47.95,0)" xlink:href="#aC"/></g><g id="G"><use transform="matrix(0.05,0,0,0.05,0,0)" xlink:href="#aA"/><use transform="matrix(0.05,0,0,0.05,12,0)" xlink:href="#aI"/><use transform="matrix(0.05,0,0,0.05,17,0)" xlink:href="#aR"/><use transform="matrix(0.05,0,0,0.05,22.95,0)" xlink:href="#aS"/><use transform="matrix(0.05,0,0,0.05,32.95,0)" xlink:href="#aM"/><use transform="matrix(0.05,0,0,0.05,41.95,0)" xlink:href="#aI"/></g><g id="H"><use transform="matrix(0.05,0,0,0.05,0,0)" xlink:href="#aV"/><use transform="matrix(0.05,0,0,0.05,12,0)" xlink:href="#aR"/><use transform="matrix(0.05,0,0,0.05,17.95,0)" xlink:href="#aL"/><use transform="matrix(0.05,0,0,0.05,27.950000000000003,0)" xlink:href="#aI"/><use transform="matrix(0.05,0,0,0.05,32.95,0)" xlink:href="#aL"/><use transform="matrix(0.05,0,0,0.05,42.95,0)" xlink:href="#bf"/><use transform="matrix(0.05,0,0,0.05,54.95,0)" xlink:href="#aS"/><use transform="matrix(0.05,0,0,0.05,64.95,0)" xlink:href="#bk"/><use transform="matrix(0.05,0,0,0.05,69.60000000000001,0)" xlink:href="#bk"/><use transform="matrix(0.05,0,0,0.05,74.60000000000001,0)" xlink:href="#aE"/><use transform="matrix(0.05,0,0,0.05,84.60000000000001,0)" xlink:href="#aR"/></g><path d="M24-231v-30h32v30H24zM-9 49c24 4 33-6 33-30v-209h32V24c2 40-23 58-65 49V49" id="bo"/><g id="I"><use transform="matrix(0.05,0,0,0.05,0,0)" xlink:href="#bi"/><use transform="matrix(0.05,0,0,0.05,14,0)" xlink:href="#aX"/><use transform="matrix(0.05,0,0,0.05,24,0)" xlink:href="#bo"/><use transform="matrix(0.05,0,0,0.05,27.950000000000003,0)" xlink:href="#aE"/><use transform="matrix(0.05,0,0,0.05,37.95,0)" xlink:href="#aM"/><use transform="matrix(0.05,0,0,0.05,46.95,0)" xlink:href="#aI"/></g><path d="M121-226c-27-7-43 5-38 36h38v33H83V0H34v-157H6v-33h28c-9-59 32-81 87-68v32" id="bp"/><g id="J"><use transform="matrix(0.08641975308641976,0,0,0.08641975308641976,0,0)" xlink:href="#ad"/><use transform="matrix(0.08641975308641976,0,0,0.08641975308641976,20.740740740740744,0)" xlink:href="#ae"/><use transform="matrix(0.08641975308641976,0,0,0.08641975308641976,43.12345679012346,0)" xlink:href="#aq"/><use transform="matrix(0.08641975308641976,0,0,0.08641975308641976,60.320987654321,0)" xlink:href="#ar"/><use transform="matrix(0.08641975308641976,0,0,0.08641975308641976,72.41975308641977,0)" xlink:href="#ao"/><use transform="matrix(0.08641975308641976,0,0,0.08641975308641976,89.70370370370374,0)" xlink:href="#ay"/><use transform="matrix(0.08641975308641976,0,0,0.08641975308641976,108.62962962962965,0)" xlink:href="#ag"/><use transform="matrix(0.08641975308641976,0,0,0.08641975308641976,125.9135802469136,0)" xlink:href="#bp"/><use transform="matrix(0.08641975308641976,0,0,0.08641975308641976,136.19753086419755,0)" xlink:href="#ah"/><use transform="matrix(0.08641975308641976,0,0,0.08641975308641976,153.4814814814815,0)" xlink:href="#ar"/></g><path d="M141 0L90-78 38 0H4l68-98-65-92h35l48 74 47-74h35l-64 92 68 98h-35" id="bq"/><g id="K"><use transform="matrix(0.05,0,0,0.05,0,0)" xlink:href="#bm"/><use transform="matrix(0.05,0,0,0.05,12,0)" xlink:href="#bq"/><use transform="matrix(0.05,0,0,0.05,21,0)" xlink:href="#aU"/><use transform="matrix(0.05,0,0,0.05,31,0)" xlink:href="#aR"/><use transform="matrix(0.05,0,0,0.05,36.95,0)" xlink:href="#aE"/><use transform="matrix(0.05,0,0,0.05,46.95,0)" xlink:href="#aH"/><use transform="matrix(0.05,0,0,0.05,55.95,0)" xlink:href="#aH"/><use transform="matrix(0.05,0,0,0.05,64.95,0)" xlink:href="#aB"/><use transform="matrix(0.05,0,0,0.05,68.9,0)" xlink:href="#aL"/><use transform="matrix(0.05,0,0,0.05,78.9,0)" xlink:href="#aD"/></g><g id="L"><use transform="matrix(0.05,0,0,0.05,0,0)" xlink:href="#aV"/><use transform="matrix(0.05,0,0,0.05,12,0)" xlink:href="#aO"/><use transform="matrix(0.05,0,0,0.05,22,0)" xlink:href="#aR"/><use transform="matrix(0.05,0,0,0.05,27.950000000000003,0)" xlink:href="#aI"/><use transform="matrix(0.05,0,0,0.05,32.95,0)" xlink:href="#aB"/><use transform="matrix(0.05,0,0,0.05,36.900000000000006,0)" xlink:href="#aM"/><use transform="matrix(0.05,0,0,0.05,45.900000000000006,0)" xlink:href="#aB"/><use transform="matrix(0.05,0,0,0.05,49.85000000000001,0)" xlink:href="#aU"/><use transform="matrix(0.05,0,0,0.05,59.85,0)" xlink:href="#aO"/><use transform="matrix(0.05,0,0,0.05,69.85000000000001,0)" xlink:href="#aD"/><use transform="matrix(0.05,0,0,0.05,79.85000000000001,0)" xlink:href="#aI"/></g><path d="M240 0l2-218c-23 76-54 145-80 218h-23L58-218 59 0H30v-248h44l77 211c21-75 51-140 76-211h43V0h-30" id="br"/><g id="M"><use transform="matrix(0.05,0,0,0.05,0,0)" xlink:href="#br"/><use transform="matrix(0.05,0,0,0.05,14.950000000000001,0)" xlink:href="#aO"/><use transform="matrix(0.05,0,0,0.05,24.950000000000003,0)" xlink:href="#aU"/></g><g id="N"><use transform="matrix(0.05,0,0,0.05,0,0)" xlink:href="#aG"/><use transform="matrix(0.05,0,0,0.05,12,0)" xlink:href="#aX"/><use transform="matrix(0.05,0,0,0.05,22,0)" xlink:href="#aX"/><use transform="matrix(0.05,0,0,0.05,32,0)" xlink:href="#aR"/><use transform="matrix(0.05,0,0,0.05,37.95,0)" xlink:href="#aE"/><use transform="matrix(0.05,0,0,0.05,47.95,0)" xlink:href="#aW"/><use transform="matrix(0.05,0,0,0.05,56.95,0)" xlink:href="#aB"/><use transform="matrix(0.05,0,0,0.05,60.900000000000006,0)" xlink:href="#aO"/><use transform="matrix(0.05,0,0,0.05,70.9,0)" xlink:href="#aI"/><use transform="matrix(0.05,0,0,0.05,75.9,0)" xlink:href="#aB"/><use transform="matrix(0.05,0,0,0.05,79.85000000000001,0)" xlink:href="#aL"/><use transform="matrix(0.05,0,0,0.05,89.85000000000001,0)" xlink:href="#aD"/></g><use transform="matrix(0.05,0,0,0.05,0,0)" xlink:href="#bd" id="O"/><g id="P"><use transform="matrix(0.05,0,0,0.05,0,0)" xlink:href="#aJ"/><use transform="matrix(0.05,0,0,0.05,5,0)" xlink:href="#aK"/><use transform="matrix(0.05,0,0,0.05,17.950000000000003,0)" xlink:href="#aK"/><use transform="matrix(0.05,0,0,0.05,30.900000000000006,0)" xlink:href="#aL"/><use transform="matrix(0.05,0,0,0.05,40.900000000000006,0)" xlink:href="#aM"/></g><g id="Q"><use transform="matrix(0.05,0,0,0.05,0,0)" xlink:href="#aK"/><use transform="matrix(0.05,0,0,0.05,12.950000000000001,0)" xlink:href="#aE"/><use transform="matrix(0.05,0,0,0.05,22.950000000000003,0)" xlink:href="#aH"/><use transform="matrix(0.05,0,0,0.05,31.950000000000003,0)" xlink:href="#aM"/><use transform="matrix(0.05,0,0,0.05,40.95,0)" xlink:href="#aR"/><use transform="matrix(0.05,0,0,0.05,46.900000000000006,0)" xlink:href="#aB"/><use transform="matrix(0.05,0,0,0.05,50.85000000000001,0)" xlink:href="#aU"/><use transform="matrix(0.05,0,0,0.05,60.85,0)" xlink:href="#aI"/><use transform="matrix(0.05,0,0,0.05,65.85000000000001,0)" xlink:href="#aB"/><use transform="matrix(0.05,0,0,0.05,69.80000000000001,0)" xlink:href="#aL"/><use transform="matrix(0.05,0,0,0.05,79.80000000000001,0)" xlink:href="#aD"/></g><g id="R"><use transform="matrix(0.05,0,0,0.05,0,0)" xlink:href="#aV"/><use transform="matrix(0.05,0,0,0.05,12,0)" xlink:href="#aR"/><use transform="matrix(0.05,0,0,0.05,17.95,0)" xlink:href="#aB"/><use transform="matrix(0.05,0,0,0.05,21.9,0)" xlink:href="#aD"/><use transform="matrix(0.05,0,0,0.05,31.899999999999995,0)" xlink:href="#aM"/><use transform="matrix(0.05,0,0,0.05,40.9,0)" xlink:href="#aB"/><use transform="matrix(0.05,0,0,0.05,44.85,0)" xlink:href="#aU"/><use transform="matrix(0.05,0,0,0.05,54.85,0)" xlink:href="#aO"/><use transform="matrix(0.05,0,0,0.05,64.85,0)" xlink:href="#aP"/></g><path d="M212-179c-10-28-35-45-73-45-59 0-87 40-87 99 0 60 29 101 89 101 43 0 62-24 78-52l27 14C228-24 195 4 139 4 59 4 22-46 18-125c-6-104 99-153 187-111 19 9 31 26 39 46" id="bs"/><g id="S"><use transform="matrix(0.05,0,0,0.05,0,0)" xlink:href="#bs"/><use transform="matrix(0.05,0,0,0.05,12.950000000000001,0)" xlink:href="#aR"/><use transform="matrix(0.05,0,0,0.05,18.900000000000002,0)" xlink:href="#aE"/><use transform="matrix(0.05,0,0,0.05,28.900000000000002,0)" xlink:href="#aF"/><use transform="matrix(0.05,0,0,0.05,38.900000000000006,0)" xlink:href="#aB"/><use transform="matrix(0.05,0,0,0.05,42.85000000000001,0)" xlink:href="#aI"/><use transform="matrix(0.05,0,0,0.05,47.85000000000001,0)" xlink:href="#aL"/><use transform="matrix(0.05,0,0,0.05,57.85,0)" xlink:href="#aR"/></g><g id="T"><use transform="matrix(0.05,0,0,0.05,0,0)" xlink:href="#aJ"/><use transform="matrix(0.05,0,0,0.05,5,0)" xlink:href="#aD"/><use transform="matrix(0.05,0,0,0.05,15,0)" xlink:href="#aB"/><use transform="matrix(0.05,0,0,0.05,18.95,0)" xlink:href="#aI"/><use transform="matrix(0.05,0,0,0.05,23.95,0)" xlink:href="#aB"/><use transform="matrix(0.05,0,0,0.05,27.899999999999995,0)" xlink:href="#aO"/><use transform="matrix(0.05,0,0,0.05,37.9,0)" xlink:href="#aI"/><use transform="matrix(0.05,0,0,0.05,42.9,0)" xlink:href="#aL"/><use transform="matrix(0.05,0,0,0.05,52.900000000000006,0)" xlink:href="#aR"/></g><g id="U"><use transform="matrix(0.05,0,0,0.05,0,0)" xlink:href="#aG"/><use transform="matrix(0.05,0,0,0.05,12,0)" xlink:href="#aF"/><use transform="matrix(0.05,0,0,0.05,22,0)" xlink:href="#aF"/><use transform="matrix(0.05,0,0,0.05,32,0)" xlink:href="#aR"/><use transform="matrix(0.05,0,0,0.05,37.95,0)" xlink:href="#aE"/><use transform="matrix(0.05,0,0,0.05,47.95,0)" xlink:href="#aH"/><use transform="matrix(0.05,0,0,0.05,56.95,0)" xlink:href="#aH"/></g><g id="V"><use transform="matrix(0.05,0,0,0.05,0,0)" xlink:href="#bs"/><use transform="matrix(0.05,0,0,0.05,12.950000000000001,0)" xlink:href="#aL"/><use transform="matrix(0.05,0,0,0.05,22.950000000000003,0)" xlink:href="#aS"/><use transform="matrix(0.05,0,0,0.05,32.95,0)" xlink:href="#aD"/><use transform="matrix(0.05,0,0,0.05,42.95,0)" xlink:href="#aI"/><use transform="matrix(0.05,0,0,0.05,47.95,0)" xlink:href="#aE"/><use transform="matrix(0.05,0,0,0.05,57.95,0)" xlink:href="#aR"/><use transform="matrix(0.05,0,0,0.05,63.900000000000006,0)" xlink:href="#aU"/><use transform="matrix(0.05,0,0,0.05,73.9,0)" xlink:href="#aO"/><use transform="matrix(0.05,0,0,0.05,83.9,0)" xlink:href="#aR"/><use transform="matrix(0.05,0,0,0.05,89.85000000000001,0)" xlink:href="#aI"/><use transform="matrix(0.05,0,0,0.05,94.85000000000001,0)" xlink:href="#aZ"/></g><path d="M106-169C34-169 62-67 57 0H25v-261h32l-1 103c12-21 28-36 61-36 89 0 53 116 60 194h-32v-121c2-32-8-49-39-48" id="bt"/><path d="M233-177c-1 41-23 64-60 70L243 0h-38l-65-103H63V0H30v-248c88 3 205-21 203 71zM63-129c60-2 137 13 137-47 0-61-80-42-137-45v92" id="bu"/><g id="W"><use transform="matrix(0.05,0,0,0.05,0,0)" xlink:href="#aG"/><use transform="matrix(0.05,0,0,0.05,12,0)" xlink:href="#aS"/><use transform="matrix(0.05,0,0,0.05,22,0)" xlink:href="#aI"/><use transform="matrix(0.05,0,0,0.05,27,0)" xlink:href="#bt"/><use transform="matrix(0.05,0,0,0.05,37,0)" xlink:href="#aE"/><use transform="matrix(0.05,0,0,0.05,47,0)" xlink:href="#aD"/><use transform="matrix(0.05,0,0,0.05,57,0)" xlink:href="#aI"/><use transform="matrix(0.05,0,0,0.05,62,0)" xlink:href="#aB"/><use transform="matrix(0.05,0,0,0.05,65.95,0)" xlink:href="#aM"/><use transform="matrix(0.05,0,0,0.05,74.95,0)" xlink:href="#aO"/><use transform="matrix(0.05,0,0,0.05,84.95,0)" xlink:href="#aI"/><use transform="matrix(0.05,0,0,0.05,89.95,0)" xlink:href="#aB"/><use transform="matrix(0.05,0,0,0.05,93.9,0)" xlink:href="#aL"/><use transform="matrix(0.05,0,0,0.05,103.9,0)" xlink:href="#aD"/><use transform="matrix(0.05,0,0,0.05,113.9,0)" xlink:href="#bu"/><use transform="matrix(0.05,0,0,0.05,126.85000000000001,0)" xlink:href="#aE"/><use transform="matrix(0.05,0,0,0.05,136.85000000000002,0)" xlink:href="#bk"/><use transform="matrix(0.05,0,0,0.05,141.85000000000002,0)" xlink:href="#aE"/><use transform="matrix(0.05,0,0,0.05,151.85000000000002,0)" xlink:href="#aR"/><use transform="matrix(0.05,0,0,0.05,157.8,0)" xlink:href="#aE"/><use transform="matrix(0.05,0,0,0.05,167.8,0)" xlink:href="#aD"/><use transform="matrix(0.05,0,0,0.05,177.8,0)" xlink:href="#aM"/><use transform="matrix(0.05,0,0,0.05,186.8,0)" xlink:href="#aE"/></g><g id="X"><use transform="matrix(0.05,0,0,0.05,0,0)" xlink:href="#bf"/><use transform="matrix(0.05,0,0,0.05,12,0)" xlink:href="#aE"/><use transform="matrix(0.05,0,0,0.05,22,0)" xlink:href="#aD"/><use transform="matrix(0.05,0,0,0.05,32,0)" xlink:href="#aE"/><use transform="matrix(0.05,0,0,0.05,42,0)" xlink:href="#bk"/><use transform="matrix(0.05,0,0,0.05,47,0)" xlink:href="#aB"/><use transform="matrix(0.05,0,0,0.05,50.95,0)" xlink:href="#aM"/><use transform="matrix(0.05,0,0,0.05,59.95,0)" xlink:href="#aB"/><use transform="matrix(0.05,0,0,0.05,63.900000000000006,0)" xlink:href="#aO"/><use transform="matrix(0.05,0,0,0.05,73.9,0)" xlink:href="#aR"/><use transform="matrix(0.05,0,0,0.05,79.85000000000001,0)" xlink:href="#aZ"/><use transform="matrix(0.05,0,0,0.05,88.85000000000001,0)" xlink:href="#bm"/><use transform="matrix(0.05,0,0,0.05,100.85000000000001,0)" xlink:href="#bs"/><use transform="matrix(0.05,0,0,0.05,113.80000000000001,0)" xlink:href="#aV"/><use transform="matrix(0.05,0,0,0.05,125.80000000000001,0)" xlink:href="#aS"/><use transform="matrix(0.05,0,0,0.05,135.8,0)" xlink:href="#aX"/><use transform="matrix(0.05,0,0,0.05,145.8,0)" xlink:href="#aP"/><use transform="matrix(0.05,0,0,0.05,149.75,0)" xlink:href="#aB"/><use transform="matrix(0.05,0,0,0.05,153.7,0)" xlink:href="#aM"/><use transform="matrix(0.05,0,0,0.05,162.7,0)" xlink:href="#aY"/><use transform="matrix(0.05,0,0,0.05,174.7,0)" xlink:href="#aE"/><use transform="matrix(0.05,0,0,0.05,184.7,0)" xlink:href="#aZ"/></g><path d="M143 0L79-87 56-68V0H24v-261h32v163l83-92h37l-77 82L181 0h-38" id="bv"/><g id="Y"><use transform="matrix(0.05,0,0,0.05,0,0)" xlink:href="#aA"/><use transform="matrix(0.05,0,0,0.05,12,0)" xlink:href="#aB"/><use transform="matrix(0.05,0,0,0.05,15.949999999999998,0)" xlink:href="#bv"/><use transform="matrix(0.05,0,0,0.05,24.95,0)" xlink:href="#aE"/><use transform="matrix(0.05,0,0,0.05,34.95,0)" xlink:href="#aV"/><use transform="matrix(0.05,0,0,0.05,46.95,0)" xlink:href="#aS"/><use transform="matrix(0.05,0,0,0.05,56.95,0)" xlink:href="#aX"/><use transform="matrix(0.05,0,0,0.05,66.95,0)" xlink:href="#aP"/><use transform="matrix(0.05,0,0,0.05,70.9,0)" xlink:href="#aB"/><use transform="matrix(0.05,0,0,0.05,74.85000000000001,0)" xlink:href="#aM"/><use transform="matrix(0.05,0,0,0.05,83.85000000000001,0)" xlink:href="#aY"/><use transform="matrix(0.05,0,0,0.05,95.85000000000001,0)" xlink:href="#aE"/><use transform="matrix(0.05,0,0,0.05,105.85000000000001,0)" xlink:href="#aZ"/></g><g id="Z"><use transform="matrix(0.05,0,0,0.05,0,0)" xlink:href="#bf"/><use transform="matrix(0.05,0,0,0.05,12,0)" xlink:href="#bl"/><use transform="matrix(0.05,0,0,0.05,22,0)" xlink:href="#aA"/><use transform="matrix(0.05,0,0,0.05,34,0)" xlink:href="#aV"/><use transform="matrix(0.05,0,0,0.05,46,0)" xlink:href="#aS"/><use transform="matrix(0.05,0,0,0.05,56,0)" xlink:href="#aX"/><use transform="matrix(0.05,0,0,0.05,66,0)" xlink:href="#aP"/><use transform="matrix(0.05,0,0,0.05,69.95,0)" xlink:href="#aB"/><use transform="matrix(0.05,0,0,0.05,73.9,0)" xlink:href="#aM"/><use transform="matrix(0.05,0,0,0.05,82.9,0)" xlink:href="#aY"/><use transform="matrix(0.05,0,0,0.05,94.9,0)" xlink:href="#aE"/><use transform="matrix(0.05,0,0,0.05,104.9,0)" xlink:href="#aZ"/></g><g id="aa"><use transform="matrix(0.05,0,0,0.05,0,0)" xlink:href="#aQ"/><use transform="matrix(0.05,0,0,0.05,10.3,0)" xlink:href="#aB"/><use transform="matrix(0.05,0,0,0.05,14.25,0)" xlink:href="#bb"/><use transform="matrix(0.05,0,0,0.05,29.200000000000003,0)" xlink:href="#aE"/><use transform="matrix(0.05,0,0,0.05,39.2,0)" xlink:href="#aA"/><use transform="matrix(0.05,0,0,0.05,51.2,0)" xlink:href="#aI"/><use transform="matrix(0.05,0,0,0.05,56.2,0)" xlink:href="#aO"/><use transform="matrix(0.05,0,0,0.05,66.2,0)" xlink:href="#bb"/><use transform="matrix(0.05,0,0,0.05,81.15,0)" xlink:href="#aU"/></g><g id="ab"><use transform="matrix(0.05,0,0,0.05,0,0)" xlink:href="#aQ"/><use transform="matrix(0.05,0,0,0.05,10.3,0)" xlink:href="#aR"/><use transform="matrix(0.05,0,0,0.05,16.25,0)" xlink:href="#aS"/><use transform="matrix(0.05,0,0,0.05,26.25,0)" xlink:href="#aH"/><use transform="matrix(0.05,0,0,0.05,35.25,0)" xlink:href="#aI"/><use transform="matrix(0.05,0,0,0.05,40.25,0)" xlink:href="#aE"/><use transform="matrix(0.05,0,0,0.05,50.25,0)" xlink:href="#aE"/></g><g id="ac"><use transform="matrix(0.05,0,0,0.05,0,0)" xlink:href="#aK"/><use transform="matrix(0.05,0,0,0.05,12.950000000000001,0)" xlink:href="#aE"/><use transform="matrix(0.05,0,0,0.05,22.950000000000003,0)" xlink:href="#bk"/><use transform="matrix(0.05,0,0,0.05,27.950000000000003,0)" xlink:href="#aB"/><use transform="matrix(0.05,0,0,0.05,31.900000000000002,0)" xlink:href="#aD"/><use transform="matrix(0.05,0,0,0.05,41.900000000000006,0)" xlink:href="#aB"/><use transform="matrix(0.05,0,0,0.05,45.85000000000001,0)" xlink:href="#aI"/><use transform="matrix(0.05,0,0,0.05,50.85000000000001,0)" xlink:href="#aB"/><use transform="matrix(0.05,0,0,0.05,54.80000000000001,0)" xlink:href="#aL"/><use transform="matrix(0.05,0,0,0.05,64.80000000000001,0)" xlink:href="#aD"/></g></defs></g></svg>